<?xml version="1.0" standalone="no"?>
<!DOCTYPE svg PUBLIC "-//W3C//DTD SVG 20010904//EN"
 "http://www.w3.org/TR/2001/REC-SVG-20010904/DTD/svg10.dtd">
<svg version="1.0" xmlns="http://www.w3.org/2000/svg"
 width="128.000000pt" height="128.000000pt" viewBox="0 0 128.000000 128.000000"
 preserveAspectRatio="xMidYMid meet">
<metadata>
Created by potrace 1.11, written by Peter Selinger 2001-2013
</metadata>
<g transform="translate(0.000000,128.000000) scale(0.100000,-0.100000)"
fill="#000000" stroke="none">
<path d="M146 1135 l-27 -25 3 -496 3 -496 24 -19 c22 -18 43 -19 351 -19
l327 0 27 25 26 24 0 215 0 216 160 160 c88 88 161 167 161 175 1 8 2 21 3 28
3 19 -13 47 -49 82 -66 67 -93 58 -220 -70 l-94 -95 -96 0 c-91 0 -97 1 -120
26 -24 26 -25 33 -25 160 l0 134 -214 0 c-213 0 -213 0 -240 -25z m991 -169
c22 -24 31 -41 26 -53 -7 -22 -64 -83 -76 -83 -5 0 -31 21 -58 48 l-48 47 41
42 c48 49 69 49 115 -1z m-304 -398 l-227 -227 -48 48 c-26 27 -48 53 -48 57
0 5 100 109 222 231 l222 222 53 -52 52 -52 -226 -227z m-307 -202 c24 -24 44
-46 44 -49 0 -2 -21 -8 -46 -12 -26 -3 -52 -9 -60 -12 -7 -2 -11 1 -10 9 2 7
6 34 11 61 4 26 10 47 12 47 3 0 25 -20 49 -44z"/>
<path d="M640 1026 c0 -93 3 -126 14 -135 9 -8 50 -11 120 -9 l106 3 -33 35
c-18 19 -70 79 -116 133 -45 53 -85 97 -87 97 -2 0 -4 -56 -4 -124z"/>
</g>
</svg>
